<svg xmlns="http://www.w3.org/2000/svg" viewBox="0 0 89.3 101.79"><defs><style>.cls-1{fill:#0f1633;}.cls-2{fill:none;stroke:#0f1633;stroke-linecap:round;stroke-linejoin:round;stroke-width:0.78px;}</style></defs><g id="Layer_2" data-name="Layer 2"><g id="Layer_1-2" data-name="Layer 1"><path class="cls-1" d="M13.11,101.48V88.94h.58v11.93h3v.61Z"/><path class="cls-1" d="M24.73,101.48,23.19,95.7H20.64l-1.51,5.78h-.67l3.45-13,3.48,13ZM21.88,90.77,20.77,95.1h2.29Z"/><path class="cls-1" d="M27.67,101.48V88.94h.53v12.54Z"/><path class="cls-1" d="M34.62,101.74,31.11,89h.66l2.87,10.65L37.37,89H38Z"/><path class="cls-1" d="M45.06,101.48,43.52,95.7H41l-1.51,5.78h-.67l3.46-13,3.47,13ZM42.21,90.77,41.1,95.1h2.29Z"/><path class="cls-1" d="M52.82,101.48a16,16,0,0,0-.14-2.71,18.26,18.26,0,0,0-1.24-2.51L48.64,91l0,10.45H48v-13l4.8,8.9,0-8.43h.58v12.54Z"/><path class="cls-1" d="M72.79,99.82a6.13,6.13,0,0,1-9,0A6.31,6.31,0,0,1,62,95.23a6.45,6.45,0,0,1,1.87-4.63,6.11,6.11,0,0,1,8.95,0,6.62,6.62,0,0,1,0,9.24Zm-.46-8.77a5.47,5.47,0,0,0-4-1.75,5.3,5.3,0,0,0-4,1.75,5.91,5.91,0,0,0-1.69,4.19A5.67,5.67,0,0,0,64.3,99.4a5.48,5.48,0,0,0,8,0,6,6,0,0,0,0-8.35Z"/><path class="cls-1" d="M79.19,100.66a4.42,4.42,0,0,1-2.57,1.13v-.63a5.68,5.68,0,0,0,2.12-.93,3.19,3.19,0,0,0,.88-2,5.28,5.28,0,0,0-1.21-2.85A6,6,0,0,1,77,92.42,4.35,4.35,0,0,1,77.83,90a2.69,2.69,0,0,1,2.07-1.27v.66c-1.06-.07-2.24,1.81-2.24,3,.12,1.42.85,2.05,1.87,3.55a4.72,4.72,0,0,1,.68,2.23A3.32,3.32,0,0,1,79.19,100.66Z"/><path class="cls-1" d="M88.26,101.48,86.72,95.7H84.17l-1.51,5.78H82l3.45-13,3.48,13ZM85.41,90.77,84.3,95.1h2.29Z"/><rect class="cls-1" x="27.66" y="86.1" width="0.53" height="0.76"/><path class="cls-1" d="M25.63,59.48a112,112,0,0,1,8.8-26.83A114.56,114.56,0,0,1,49.69,8.84a.36.36,0,0,1,.51,0h0a.39.39,0,0,1,.12.19h0c.76,3.2,1.36,6.44,1.82,9.71a95.24,95.24,0,0,1,.91,9.83,102.75,102.75,0,0,1-1,19.68s0,0-.05,0,0,0,0,0a127.45,127.45,0,0,0,.35-19.63c-.22-3.27-.53-6.53-1-9.77s-1-6.45-1.76-9.65l.12.2h0l.52,0A112.68,112.68,0,0,0,25.7,59.5s0,0,0,0S25.62,59.5,25.63,59.48Z"/><path class="cls-1" d="M52,48.19q4.27-4.3,8.1-9c1.27-1.57,2.46-3.19,3.72-4.75s2.5-3.16,3.82-4.7h.06a.07.07,0,0,1,0,.05,48.72,48.72,0,0,1-3.26,5.12c-1.19,1.64-2.53,3.17-3.87,4.68a103.45,103.45,0,0,1-8.52,8.62,0,0,0,0,1-.06,0A0,0,0,0,1,52,48.19Z"/><path class="cls-1" d="M49.94,9.11a130.41,130.41,0,0,0-8.22,11.43,113.92,113.92,0,0,0-6.81,12.34q-1.5,3.19-2.79,6.47c-.88,2.18-1.7,4.38-2.44,6.61-1.56,4.43-2.83,9-4,13.54,0,0,0,0,0,0s0,0,0-.05a89.59,89.59,0,0,1,3.3-13.77c.75-2.24,1.58-4.46,2.47-6.65s1.9-4.33,3-6.45a113,113,0,0,1,7-12.28A103.67,103.67,0,0,1,50,9.05a0,0,0,0,1,0,.06S50,9.13,49.94,9.11Z"/><path class="cls-1" d="M50.91,6.82A110.75,110.75,0,0,1,69.38,28.39c1.3,2,2.55,4,3.73,6.07.58,1,1.13,2.09,1.69,3.14l1.59,3.19a89.57,89.57,0,0,1,5,13.34s0,0,0,0a0,0,0,0,1,0,0c-1.7-4.42-3.52-8.79-5.62-13L74.11,38c-.56-1-1.1-2.09-1.68-3.12q-1.7-3.11-3.58-6.11a114.69,114.69,0,0,0-18-21.86,0,0,0,0,1,0,0A0,0,0,0,1,50.91,6.82Z"/><path class="cls-1" d="M52.62,45.77a117.54,117.54,0,0,0,.52-19.58c-.19-3.26-.57-6.51-1-9.74S51.31,10,50.82,6.74a0,0,0,0,1,0,0s0,0,0,0A72,72,0,0,1,53,16.34a85,85,0,0,1,.81,9.82A110,110,0,0,1,52.7,45.78s0,0,0,0A0,0,0,0,1,52.62,45.77Z"/><path class="cls-1" d="M70.74,31.2c-2.85-.27-5.71-.44-8.58-.53-1.43,0-2.86,0-4.29-.08s-2.85-.15-4.29-.35a0,0,0,0,1,0,0,0,0,0,0,1,0,0,31.19,31.19,0,0,1,4.31-.36c1.44,0,2.88.12,4.31.24q4.3.34,8.55,1.08s0,0,0,.05A.05.05,0,0,1,70.74,31.2Z"/><path class="cls-1" d="M66.47,29.5a103.71,103.71,0,0,1-7.14,9.82,60,60,0,0,1-4,4.57A47.2,47.2,0,0,1,50.8,48s0,0-.06,0a0,0,0,0,1,0,0c1.31-1.56,2.69-3,4-4.53s2.76-2.94,4.1-4.45c2.66-3,5.18-6.18,7.55-9.45a0,0,0,0,1,0,0S66.48,29.48,66.47,29.5Z"/><path class="cls-1" d="M79.44,56.33a44,44,0,0,0-13.65-6.47,53.29,53.29,0,0,0-7.42-1.39A63.14,63.14,0,0,0,50.81,48h0a0,0,0,0,1,0,0,0,0,0,0,1,0,0h0a33.16,33.16,0,0,1,7.65-.19A36.23,36.23,0,0,1,66,49.26a42.14,42.14,0,0,1,13.51,7s0,0,0,0S79.46,56.34,79.44,56.33Z"/><path class="cls-1" d="M26.54,59.48a110.4,110.4,0,0,1,8.72-26.87c1-2.14,2.08-4.25,3.22-6.32s2.38-4.08,3.66-6.07A83.85,83.85,0,0,1,50.91,9.05a0,0,0,0,1,0,.06h0c-2.75,3.74-5.59,7.56-8.06,11.54-1.28,2-2.49,4-3.65,6s-2.28,4.11-3.33,6.21a114.64,114.64,0,0,0-9.2,26.62,0,0,0,1,1-.08,0Z"/><path class="cls-1" d="M25.36,58.77a111.93,111.93,0,0,1,8.81-26.83A114.25,114.25,0,0,1,49.42,8.13a.36.36,0,0,1,.51-.05h0a.39.39,0,0,1,.12.19h0c.76,3.21,1.36,6.45,1.82,9.71a98.12,98.12,0,0,1,.92,9.83,102.71,102.71,0,0,1-1,19.68,0,0,0,0,1,0,0s0,0,0,0a126.17,126.17,0,0,0,.34-19.63c-.22-3.26-.53-6.52-1-9.76s-1.06-6.46-1.77-9.65l.12.2h0L50,8.6A112.61,112.61,0,0,0,25.44,58.78s0,0-.05,0S25.36,58.79,25.36,58.77Z"/><path class="cls-1" d="M52.54,29.81c-3.18.47-6.34,1.06-9.47,1.75-1.56.36-3.11.79-4.67,1.12s-3.14.66-4.74.9a.07.07,0,0,1,0,0s0,0,0,0a36.87,36.87,0,0,1,4.57-1.59c1.56-.43,3.15-.69,4.74-1,3.17-.56,6.37-1,9.58-1.21a0,0,0,0,1,0,0S52.56,29.81,52.54,29.81Z"/><path class="cls-1" d="M50.81,47.83A43.26,43.26,0,0,0,24.63,59.2a.25.25,0,0,1-.34,0,.27.27,0,0,1-.06-.21,113.66,113.66,0,0,1,3.58-13.71,104.38,104.38,0,0,1,5.27-13.16q1.55-3.19,3.28-6.29c1.18-2,2.43-4.06,3.73-6a93.45,93.45,0,0,1,8.7-11.21,0,0,0,0,1,0,.06,0,0,0,0,1-.06,0c-2.82,3.68-5.62,7.53-8.11,11.5q-1.89,3-3.59,6.07t-3.26,6.24a118,118,0,0,0-5.37,13,112,112,0,0,0-3.71,13.6l-.39-.22A42.88,42.88,0,0,1,36.63,51a43.62,43.62,0,0,1,14.18-3.28s0,0,0,0S50.83,47.82,50.81,47.83Z"/><path class="cls-1" d="M54,6a.5.5,0,0,0-.24-.46.67.67,0,0,0-.47-.08.49.49,0,0,0-.43.54.5.5,0,0,0,.43.35.74.74,0,0,0,.38,0A.43.43,0,0,0,54,6Zm.08,0a1.31,1.31,0,0,1-.11.68.85.85,0,0,1-.68.46,1,1,0,0,1-.8-.34,1.07,1.07,0,0,1-.25-.8,1,1,0,0,1,1.05-.93A1,1,0,0,1,54.06,6Z"/><path class="cls-1" d="M88.83,38.29A37.62,37.62,0,0,0,36.68,3.7,37.23,37.23,0,0,0,24.76,64.54,37.66,37.66,0,0,0,85.84,52.72,37.94,37.94,0,0,0,88.83,38.29Zm.16,0A38.25,38.25,0,0,1,51,77,38.5,38.5,0,0,1,12.48,38.29,38.39,38.39,0,0,1,51,0,38.31,38.31,0,0,1,89,38.29Z"/><circle class="cls-2" cx="51.01" cy="38.29" r="37.9"/><path class="cls-1" d="M85.88,65.63a54.28,54.28,0,0,0-10.14-5.49,29.28,29.28,0,0,0-11.15-2.57,20,20,0,0,0-5.64.89,35,35,0,0,0-5.29,2.25c-1.72.86-3.45,1.74-5.25,2.47A35.49,35.49,0,0,1,42.86,65a42.57,42.57,0,0,1-11.59.94,47.25,47.25,0,0,1-11.44-2.13A52.86,52.86,0,0,1,9.21,59,48.21,48.21,0,0,1,0,52a.06.06,0,0,1,0-.06.06.06,0,0,1,.06,0,54,54,0,0,0,9.42,6.62A56.43,56.43,0,0,0,20.06,63a44.85,44.85,0,0,0,22.67,1.35,35,35,0,0,0,5.48-1.68c1.78-.71,3.51-1.56,5.24-2.4a35.65,35.65,0,0,1,5.38-2.23,20.05,20.05,0,0,1,5.76-.82A29.28,29.28,0,0,1,75.82,60a54.88,54.88,0,0,1,10.11,5.62,0,0,0,0,1,0,.05S85.9,65.65,85.88,65.63Z"/></g></g></svg>